# xmcd
#
# Track frame offsets:
#	150
#	17014
#	34058
#	46285
#	63351
#	78827
#	93620
#	105383
#	120477
#	137542
#	154591
#
# Disc length: 2292 seconds
#
# Revision: 0
# Processed by: cddbd v1.5.2PL0 Copyright (c) Steve Scherf et al.
# Submitted via: audiograbber 1.83.01
#
DISCID=7c08f20b
DTITLE=Sonny Burgess - Have You Got A Song Like That?
DYEAR=2009
DGENRE=Country
TTITLE0=Beer-I-Cide
TTITLE1=The Request
TTITLE2=I Can't Think Of One
TTITLE3=Tomorrow Is Gone
TTITLE4=Plane Ol' Pain
TTITLE5=Grain Of Salt
TTITLE6=Think, Thang, Think
TTITLE7=She Don't Make It Easy
TTITLE8=Cowboy Cool
TTITLE9=All Kinds Of Beautiful
TTITLE10=Every Now And Then
EXTD=
EXTT0=
EXTT1=
EXTT2=
EXTT3=
EXTT4=
EXTT5=
EXTT6=
EXTT7=
EXTT8=
EXTT9=
EXTT10=
PLAYORDER=
